<?xml version="1.0" encoding="utf-8"?>
<!DOCTYPE svg PUBLIC "-//W3C//DTD SVG 20010904//EN" "http://www.w3.org/TR/2001/REC-SVG-20010904/DTD/svg10.dtd">
<svg version="1.0" xmlns="http://www.w3.org/2000/svg" width="21px" height="20px" viewBox="0 0 21 20" preserveAspectRatio="xMidYMid meet">
 <g fill="#da4a4a">
  <path d="M6.5 19.1 c-6.1 -2.7 -8 -10.8 -3.6 -15.5 2.8 -3 8.1 -4.3 10.8 -2.7 1.5 0.9 1.2 1 -1.3 0.5 -6.9 -1.3 -13 5.4 -10.4 11.6 1.3 3.1 5.4 6 8.5 6 2.9 0 7.1 -2.8 8.3 -5.5 1.5 -3.3 1.5 -4.7 -0.1 -6.9 -1.2 -1.7 -1.6 -1.3 -4.7 3.8 l-3.4 5.6 -2.3 -2.7 c-3 -3.7 -2.9 -5.2 0.1 -2.4 l2.5 2.3 3.2 -5.2 c2.7 -4.4 3.4 -5 4.6 -3.8 0.7 0.8 1.6 3 1.9 5 0.5 2.9 0.1 4.1 -2.2 6.7 -3.1 3.4 -8.3 4.8 -11.9 3.2z"/>
 </g>
</svg>