<?xml version="1.0" encoding="utf-8"?>
<!DOCTYPE svg PUBLIC "-//W3C//DTD SVG 20010904//EN" "http://www.w3.org/TR/2001/REC-SVG-20010904/DTD/svg10.dtd">
<svg version="1.0" xmlns="http://www.w3.org/2000/svg" width="21px" height="20px" viewBox="0 0 21 20" preserveAspectRatio="xMidYMid meet">
 <g fill="#1997b0">
  <path d="M6.5 19.1 c-6.4 -2.8 -8.2 -11.4 -3.2 -15.7 3.5 -3 7.2 -4 10 -2.6 1.9 1 1.8 1 -0.9 0.5 -7 -1.2 -12.9 5.6 -10.4 11.7 3.3 7.9 14.9 7.5 17.4 -0.7 0.8 -2.4 -0.2 -7.3 -1.4 -7.3 -0.4 0 -2.3 2.5 -4.1 5.5 -3.6 6 -4.1 5.9 -7 0 -0.9 -1.7 -0.7 -1.7 1 0.3 1 1.2 2.2 2.2 2.5 2.2 0.3 0 2 -2.3 3.7 -5.1 2.9 -4.6 3.3 -4.9 4.8 -3.5 2.5 2.6 2 9.1 -1 12.1 -2.7 2.8 -8.2 4 -11.4 2.6z"/>
 </g>
</svg>